<svg width="12" height="12" viewBox="0 0 12 12" fill="none" xmlns="http://www.w3.org/2000/svg">
    <path
        d="M6 0C9.3139 0 12 2.68651 12 6C12 9.31349 9.31386 12 6 12C2.68614 12 0 9.31353 0 6C0 2.68647 2.68614 0 6 0Z"
        fill="#EFC75E" />
    <path
        d="M6 1.125C3.30748 1.125 1.125 3.30752 1.125 6C1.125 8.69248 3.30752 10.875 6 10.875C8.69247 10.875 10.875 8.69248 10.875 6C10.875 3.30752 8.69251 1.125 6 1.125ZM6 10.125C3.72185 10.125 1.87499 8.27814 1.87499 6C1.87499 3.72186 3.72189 1.87499 6 1.87499C8.2781 1.87499 10.125 3.72186 10.125 6C10.125 8.27814 8.27851 10.125 6 10.125ZM6.49877 5.68688C6.27453 5.59274 5.45026 5.46265 5.45026 5.10227C5.45026 4.83641 5.75853 4.7595 5.9434 4.7595C6.11178 4.7595 6.31352 4.81276 6.42005 4.91888C6.48754 4.98374 6.5153 5.031 6.53743 5.09627C6.56556 5.17314 6.58242 5.25564 6.68895 5.25564H7.23831C7.36729 5.25564 7.40106 5.23204 7.40106 5.09026C7.40106 4.482 6.92441 4.13928 6.38069 4.02115V3.54862C6.38069 3.44251 6.34692 3.37723 6.21794 3.37723H5.78032C5.65134 3.37723 5.61758 3.4421 5.61758 3.54862V4.00314C5.03445 4.11526 4.54694 4.48163 4.54694 5.14316C4.54694 5.89315 5.06858 6.12939 5.63444 6.31805C6.11108 6.4778 6.61019 6.48343 6.61019 6.81419C6.61019 7.14495 6.36382 7.21582 6.06082 7.21582C5.85308 7.21582 5.62358 7.16218 5.51109 7.02082C5.43834 6.93231 5.4102 6.85544 5.40498 6.77857C5.39371 6.63084 5.33222 6.61319 5.20287 6.61319H4.6591C4.53012 6.61319 4.49635 6.64318 4.49635 6.77857C4.49635 7.45169 5.03486 7.85969 5.61762 7.98946V8.45035C5.61762 8.55646 5.65138 8.62173 5.78037 8.62173H6.21798C6.34696 8.62173 6.38073 8.5565 6.38073 8.45035V8.00184C7.04225 7.90095 7.49636 7.49969 7.49636 6.79095C7.49701 5.98803 6.90266 5.81665 6.49877 5.68688Z"
        fill="#CC9933" />
</svg>
