<svg width="18" height="18" viewBox="0 0 18 18" fill="none" xmlns="http://www.w3.org/2000/svg">
<path d="M11.5818 9.52816L9.83333 8.51904V4.83334C9.83333 4.61232 9.74553 4.40036 9.58925 4.24408C9.43297 4.0878 9.22101 4 9 4C8.77898 4 8.56702 4.0878 8.41074 4.24408C8.25446 4.40036 8.16666 4.61232 8.16666 4.83334V9C8.16662 9.14631 8.20511 9.29005 8.27825 9.41677C8.35139 9.54348 8.45661 9.6487 8.58333 9.72185L10.7484 10.9718C10.8432 11.0266 10.9479 11.0622 11.0565 11.0765C11.165 11.0908 11.2753 11.0836 11.3811 11.0553C11.4868 11.027 11.586 10.9781 11.6728 10.9115C11.7597 10.8448 11.8326 10.7617 11.8873 10.6669C11.9421 10.5721 11.9776 10.4674 11.9918 10.3588C12.0061 10.2503 11.9988 10.14 11.9705 10.0342C11.9421 9.92847 11.8932 9.82935 11.8265 9.74252C11.7598 9.65569 11.6766 9.58285 11.5818 9.52816ZM9 0.666668C7.35182 0.666668 5.74065 1.15541 4.37024 2.07109C2.99983 2.98677 1.93173 4.28826 1.301 5.81097C0.670267 7.33369 0.505239 9.00925 0.826783 10.6258C1.14833 12.2423 1.942 13.7271 3.10744 14.8926C4.27288 16.058 5.75773 16.8517 7.37424 17.1732C8.99075 17.4948 10.6663 17.3297 12.189 16.699C13.7117 16.0683 15.0132 15.0002 15.9289 13.6298C16.8446 12.2593 17.3333 10.6482 17.3333 9C17.3309 6.79062 16.4521 4.67243 14.8898 3.11016C13.3276 1.54789 11.2094 0.669125 9 0.666668ZM9 15.6667C7.68145 15.6667 6.39252 15.2757 5.29619 14.5431C4.19986 13.8106 3.34538 12.7694 2.8408 11.5512C2.33621 10.3331 2.20419 8.99261 2.46143 7.6994C2.71866 6.40619 3.3536 5.21831 4.28595 4.28596C5.2183 3.35361 6.40619 2.71867 7.69939 2.46143C8.9926 2.2042 10.333 2.33622 11.5512 2.84081C12.7694 3.34539 13.8106 4.19987 14.5431 5.2962C15.2757 6.39253 15.6667 7.68146 15.6667 9C15.6646 10.7675 14.9616 12.462 13.7118 13.7118C12.462 14.9616 10.7675 15.6646 9 15.6667Z" fill="#F2C94C"/>
</svg>
